<svg width="471" height="171" viewBox="0 0 471 171" fill="none" xmlns="http://www.w3.org/2000/svg">
<g clip-path="url(#clip0_192_117)">
<path d="M417.732 170.185L433.844 84.8871H455.326L471.227 170.185H453.852L451.009 152.177H438.477L435.529 170.185H417.732ZM440.162 140.91H449.219L444.69 107.633L440.162 140.91Z" fill="black"/>
<path d="M357.418 170.185L347.098 84.8871H363.104L368.159 134.591L374.583 84.9925H387.114L393.853 134.275L399.013 84.8871H414.809L404.595 170.185H388.167L380.901 118.69L374.056 170.185H357.418Z" fill="black"/>
<path d="M290.625 170.185L306.737 84.8871H328.219L344.12 170.185H326.745L323.902 152.177H311.37L308.422 170.185H290.625ZM313.055 140.91H322.112L317.583 107.633L313.055 140.91Z" fill="black"/>
<path d="M255.66 171.448C249.763 171.448 245.095 170.22 241.655 167.763C238.285 165.306 235.863 161.866 234.389 157.443C232.985 152.95 232.283 147.79 232.283 141.963V113.32C232.283 107.282 233.055 102.052 234.599 97.6292C236.144 93.2063 238.776 89.8014 242.497 87.4145C246.288 84.9574 251.413 83.7288 257.872 83.7288C264.19 83.7288 269.14 84.7819 272.72 86.888C276.371 88.9941 278.968 91.9076 280.513 95.6284C282.057 99.3492 282.829 103.702 282.829 108.686V114.162H264.401V107.212C264.401 105.387 264.26 103.702 263.98 102.157C263.769 100.613 263.207 99.3843 262.295 98.4716C261.452 97.4888 260.048 96.9973 258.082 96.9973C256.047 96.9973 254.572 97.559 253.66 98.6822C252.747 99.7353 252.15 101.069 251.869 102.684C251.659 104.299 251.553 105.983 251.553 107.738V147.228C251.553 149.124 251.729 150.914 252.08 152.599C252.501 154.213 253.203 155.547 254.186 156.6C255.239 157.583 256.713 158.075 258.609 158.075C260.575 158.075 262.084 157.548 263.137 156.495C264.19 155.442 264.927 154.073 265.349 152.388C265.77 150.703 265.98 148.913 265.98 147.017V137.013H258.293V125.956H282.935V170.185H270.508L269.455 163.129C268.332 165.516 266.682 167.517 264.506 169.132C262.33 170.676 259.381 171.448 255.66 171.448Z" fill="black"/>
<path d="M172.671 170.185L188.782 84.8871H210.265L226.166 170.185H208.79L205.947 152.177H193.416L190.467 170.185H172.671ZM195.101 140.91H204.157L199.629 107.633L195.101 140.91Z" fill="black"/>
<path d="M117.029 170.185V84.8871H135.879V119.743L150.2 84.8871H168.629L152.833 123.429L169.366 170.185H150.2L137.879 132.485L135.879 135.855V170.185H117.029Z" fill="black"/>
<path d="M54.9218 170.185L71.0335 84.8871H92.5158L108.417 170.185H91.0416L88.1983 152.177H75.6669L72.7184 170.185H54.9218ZM77.3518 140.91H86.4081L81.88 107.633L77.3518 140.91Z" fill="black"/>
<path d="M0 170.185V84.8871H13.2685L30.7492 125.956V84.8871H46.3344V170.185H33.5925L16.1117 125.956V170.185H0Z" fill="black"/>
<path d="M176.578 85.2975L192.69 0H214.173L230.074 85.2975H212.698L209.855 67.2902H197.324L194.375 85.2975H176.578ZM199.009 56.0225H208.065L203.537 22.746L199.009 56.0225Z" fill="black"/>
<path d="M146.209 85.2975V14.0056H133.362V0H177.906V14.0056H165.164V85.2975H146.209Z" fill="black"/>
<path d="M106.953 85.2975V0H125.803V85.2975H106.953Z" fill="black"/>
<path d="M59.7485 85.2975V0H98.0798V12.8473H78.5982V34.0137H93.4463V47.0716H78.5982V72.5555H98.2904V85.2975H59.7485Z" fill="black"/>
<path d="M0 85.2975V0H18.8497V34.8561L33.1712 0H51.5997L35.8039 38.5418L52.3369 85.2975H33.1712L20.8505 47.5981L18.8497 50.9679V85.2975H0Z" fill="black"/>
</g>
<defs>
<clipPath id="clip0_192_117">
<rect width="471" height="171" fill="white"/>
</clipPath>
</defs>
</svg>
