<svg width="55" height="55" viewBox="0 0 55 55" fill="none" xmlns="http://www.w3.org/2000/svg">
<path d="M36.6667 27.5002C36.6667 25.6872 36.1291 23.9149 35.1218 22.4074C34.1146 20.9 32.6829 19.7251 31.0079 19.0313C29.3329 18.3375 27.4898 18.1559 25.7116 18.5096C23.9335 18.8633 22.3001 19.7364 21.0181 21.0184C19.7361 22.3003 18.8631 23.9337 18.5094 25.7118C18.1557 27.49 18.3372 29.3331 19.031 31.0081C19.7248 32.6831 20.8998 34.1147 22.4072 35.122C23.9147 36.1292 25.687 36.6669 27.5 36.6669C29.9303 36.6641 32.2603 35.6974 33.9788 33.9789C35.6973 32.2605 36.6639 29.9305 36.6667 27.5002ZM21.9999 27.5002C21.9999 26.4124 22.3225 25.349 22.9269 24.4445C23.5312 23.5401 24.3902 22.8351 25.3952 22.4188C26.4002 22.0026 27.5061 21.8936 28.573 22.1059C29.6399 22.3181 30.6199 22.8419 31.3891 23.6111C32.1583 24.3803 32.6821 25.3603 32.8943 26.4272C33.1066 27.4941 32.9976 28.5999 32.5813 29.6049C32.1651 30.6099 31.4601 31.4689 30.5556 32.0733C29.6512 32.6776 28.5878 33.0002 27.5 33.0002C26.0418 32.9985 24.6438 32.4185 23.6127 31.3874C22.5816 30.3563 22.0016 28.9584 21.9999 27.5002Z" fill="black"/>
<path d="M16.4999 43.7696L26.2748 55.0002H28.7253L38.5001 43.7696V40.3335H16.4999V43.7696ZM33.4383 44.0002L27.5 50.8229L21.5617 44.0002H33.4383Z" fill="black"/>
<path d="M26.2748 -0.000244141L16.4999 11.2303V14.6664H38.5001V11.2303L28.7253 -0.000244141H26.2748ZM21.5617 10.9998L27.5 4.17701L33.4383 10.9998H21.5617Z" fill="black"/>
<path d="M-0.000167847 26.2745V28.725L11.2306 38.4998H14.6666V16.4998H11.2306L-0.000167847 26.2745ZM10.9999 33.4382L4.17699 27.4998L10.9999 21.5614V33.4382Z" fill="black"/>
<path d="M43.7694 16.4998H40.3334V38.4998H43.7694L55.0002 28.725V26.2745L43.7694 16.4998ZM44.0001 33.4382V21.5614L50.823 27.4998L44.0001 33.4382Z" fill="black"/>
</svg>
